<svg width="24" height="25" viewBox="0 0 24 25" fill="none" xmlns="http://www.w3.org/2000/svg">
<path d="M21 12.2718C21 6.78176 16.74 3.05176 12 3.05176C7.31 3.05176 3 6.70176 3 12.3318C2.4 12.6718 2 13.3118 2 14.0518V16.0518C2 17.1518 2.9 18.0518 4 18.0518H5V11.9518C5 8.08176 8.13 4.95176 12 4.95176C15.87 4.95176 19 8.08176 19 11.9518V19.0518H11V21.0518H19C20.1 21.0518 21 20.1518 21 19.0518V17.8318C21.59 17.5218 22 16.9118 22 16.1918V13.8918C22 13.1918 21.59 12.5818 21 12.2718Z" fill="#B6BCC4"/>
<path d="M9 14.0518C9.55228 14.0518 10 13.604 10 13.0518C10 12.4995 9.55228 12.0518 9 12.0518C8.44772 12.0518 8 12.4995 8 13.0518C8 13.604 8.44772 14.0518 9 14.0518Z" fill="#B6BCC4"/>
<path d="M15 14.0518C15.5523 14.0518 16 13.604 16 13.0518C16 12.4995 15.5523 12.0518 15 12.0518C14.4477 12.0518 14 12.4995 14 13.0518C14 13.604 14.4477 14.0518 15 14.0518Z" fill="#B6BCC4"/>
<path d="M18 11.0818C17.7615 9.67589 17.0334 8.39972 15.9444 7.47914C14.8555 6.55855 13.4759 6.05293 12.05 6.05176C9.01997 6.05176 5.75997 8.56176 6.01997 12.5018C7.2531 11.9971 8.34221 11.1952 9.1902 10.1675C10.0382 9.13984 10.6187 7.91827 10.88 6.61176C12.19 9.24176 14.88 11.0518 18 11.0818Z" fill="#B6BCC4"/>
</svg>
