<svg width="27" height="27" viewBox="0 0 27 27" fill="none" xmlns="http://www.w3.org/2000/svg">
<path d="M14.6875 19.1768C16.8958 19.1768 18.6042 18.4476 19.8125 16.9893C21.0208 15.5309 21.625 13.8226 21.625 11.8643C21.625 9.69759 20.8125 7.83301 19.1875 6.27051C17.5625 4.70801 15.6146 3.92676 13.3438 3.92676C11.0729 3.92676 9.125 4.70801 7.5 6.27051C5.875 7.83301 5.0625 9.69759 5.0625 11.8643C5.0625 13.2809 5.4375 14.5934 6.1875 15.8018C6.4375 16.2601 6.8125 16.4893 7.3125 16.4893C7.6875 16.4893 8.01042 16.3538 8.28125 16.083C8.55208 15.8122 8.6875 15.5101 8.6875 15.1768C8.6875 14.9684 8.60417 14.7393 8.4375 14.4893C7.97917 13.6559 7.75 12.7809 7.75 11.8643C7.75 10.4059 8.29167 9.16634 9.375 8.14551C10.4583 7.12467 11.7708 6.61426 13.3125 6.61426C14.8542 6.61426 16.1771 7.12467 17.2812 8.14551C18.3854 9.16634 18.9375 10.4059 18.9375 11.8643C18.9375 13.1143 18.5938 14.1872 17.9062 15.083C17.2188 15.9788 16.1458 16.4268 14.6875 16.4268C14.1875 16.4268 13.7708 16.2497 13.4375 15.8955C13.1042 15.5413 12.9375 15.1143 12.9375 14.6143C12.9375 14.2393 13.1354 13.6455 13.5312 12.833C13.9271 12.0205 14.125 11.2809 14.125 10.6143C14.125 9.44759 13.4792 8.86426 12.1875 8.86426C11.6042 8.86426 11.0938 9.10384 10.6562 9.58301C10.2188 10.0622 10 10.8226 10 11.8643C10 12.1976 10.0208 12.5309 10.0625 12.8643C10.1042 13.1976 10.1458 13.4476 10.1875 13.6143L10.25 13.8018L7.8125 21.2393L7.75 21.4893V21.6768C7.75 22.0934 7.88542 22.4476 8.15625 22.7393C8.42708 23.0309 8.77083 23.1768 9.1875 23.1768C9.77083 23.1768 10.1875 22.9268 10.4375 22.4268L10.5 22.4893L10.5625 22.2393L11.8125 17.9268C12.6042 18.7601 13.5625 19.1768 14.6875 19.1768ZM24 0.239258C24.75 0.239258 25.3854 0.499674 25.9062 1.02051C26.4271 1.54134 26.6875 2.15592 26.6875 2.86426V24.2393C26.6875 24.9476 26.4271 25.5622 25.9062 26.083C25.3854 26.6038 24.75 26.8643 24 26.8643H2.6875C1.9375 26.8643 1.30208 26.6038 0.78125 26.083C0.260417 25.5622 0 24.9476 0 24.2393V2.86426C0 2.15592 0.260417 1.54134 0.78125 1.02051C1.30208 0.499674 1.9375 0.239258 2.6875 0.239258H24Z" fill="#139595"/>
</svg>
