<svg width="32" height="33" viewBox="0 0 32 33" fill="none" xmlns="http://www.w3.org/2000/svg">
<path d="M27.9294 11.125C27.916 10.1152 27.7269 9.1154 27.3708 8.17037C27.0619 7.37324 26.5901 6.6493 25.9857 6.04481C25.3812 5.44032 24.6572 4.96857 23.8601 4.6597C22.9272 4.30951 21.9417 4.12016 20.9454 4.0997C19.6628 4.04237 19.2561 4.02637 16.0001 4.02637C12.7441 4.02637 12.3268 4.02637 11.0534 4.0997C10.0576 4.12031 9.07256 4.30966 8.14009 4.6597C7.34284 4.96835 6.61879 5.44003 6.01427 6.04454C5.40975 6.64906 4.93808 7.37311 4.62943 8.17037C4.27854 9.10254 4.08959 10.0878 4.07076 11.0837C4.01343 12.3677 3.99609 12.7744 3.99609 16.0304C3.99609 19.2864 3.99609 19.7024 4.07076 20.977C4.09076 21.9744 4.27876 22.9584 4.62943 23.893C4.9386 24.6901 5.41062 25.4138 6.01534 26.0181C6.62006 26.6223 7.34418 27.0938 8.14143 27.4024C9.07134 27.7666 10.0566 27.9695 11.0548 28.0024C12.3388 28.0597 12.7454 28.077 16.0014 28.077C19.2574 28.077 19.6748 28.077 20.9481 28.0024C21.9443 27.9828 22.9299 27.7938 23.8628 27.4437C24.6597 27.1345 25.3834 26.6626 25.9879 26.0582C26.5923 25.4537 27.0642 24.73 27.3734 23.933C27.7241 22.9997 27.9121 22.0157 27.9321 21.017C27.9894 19.7344 28.0068 19.3277 28.0068 16.0704C28.0041 12.8144 28.0041 12.401 27.9294 11.125ZM15.9921 22.1877C12.5868 22.1877 9.82809 19.429 9.82809 16.0237C9.82809 12.6184 12.5868 9.8597 15.9921 9.8597C17.6269 9.8597 19.1947 10.5091 20.3507 11.6651C21.5067 12.8211 22.1561 14.3889 22.1561 16.0237C22.1561 17.6585 21.5067 19.2263 20.3507 20.3823C19.1947 21.5383 17.6269 22.1877 15.9921 22.1877ZM22.4014 11.069C21.6054 11.069 20.9641 10.4264 20.9641 9.6317C20.9641 9.44304 21.0013 9.25622 21.0735 9.08191C21.1457 8.90761 21.2515 8.74923 21.3849 8.61582C21.5183 8.48242 21.6767 8.37659 21.851 8.30439C22.0253 8.23219 22.2121 8.19503 22.4008 8.19503C22.5894 8.19503 22.7762 8.23219 22.9506 8.30439C23.1249 8.37659 23.2832 8.48242 23.4166 8.61582C23.55 8.74923 23.6559 8.90761 23.7281 9.08191C23.8003 9.25622 23.8374 9.44304 23.8374 9.6317C23.8374 10.4264 23.1948 11.069 22.4014 11.069Z" fill="#139595"/>
<path d="M15.9918 20.0275C18.2031 20.0275 19.9958 18.2349 19.9958 16.0235C19.9958 13.8122 18.2031 12.0195 15.9918 12.0195C13.7804 12.0195 11.9878 13.8122 11.9878 16.0235C11.9878 18.2349 13.7804 20.0275 15.9918 20.0275Z" fill="#139595"/>
</svg>
