<svg width="27" height="28" viewBox="0 0 27 28" fill="none" xmlns="http://www.w3.org/2000/svg">
<path d="M4.93004 0.0517578C2.19901 0.0517578 0 2.25077 0 4.9818V22.1217C0 24.8528 2.19901 27.0518 4.93004 27.0518H14.2197V16.4965H11.4286V12.6962H14.2197V9.44946C14.2197 6.89863 15.8689 4.55655 19.6678 4.55655C21.206 4.55655 22.3434 4.70421 22.3434 4.70421L22.2539 8.25304C22.2539 8.25304 21.0939 8.24207 19.8281 8.24207C18.4582 8.24207 18.2385 8.87328 18.2385 9.92115V12.6962H22.3628L22.183 16.4965H18.2385V27.0518H22.07C24.801 27.0518 27 24.8528 27 22.1218V4.98182C27 2.2508 24.801 0.0517848 22.07 0.0517848H4.93001L4.93004 0.0517578Z" fill="#139595"/>
</svg>
