<svg width="24" height="25" viewBox="0 0 24 25" fill="none" xmlns="http://www.w3.org/2000/svg">
<path d="M20 7.58301C19.4167 7.84342 18.7865 8.02051 18.1094 8.11426C18.8177 7.69759 19.3021 7.08822 19.5625 6.28613C18.8854 6.68197 18.1875 6.94759 17.4688 7.08301C16.8333 6.39551 16.0365 6.05176 15.0781 6.05176C14.1719 6.05176 13.3984 6.37207 12.7578 7.0127C12.1172 7.65332 11.7969 8.42676 11.7969 9.33301C11.7969 9.63509 11.8229 9.88509 11.875 10.083C10.5312 10.0101 9.27083 9.67155 8.09375 9.06738C6.91667 8.46322 5.91667 7.65592 5.09375 6.64551C4.79167 7.16634 4.64062 7.71842 4.64062 8.30176C4.64062 9.48926 5.11458 10.4007 6.0625 11.0361C5.57292 11.0257 5.05208 10.8903 4.5 10.6299V10.6611C4.5 11.4424 4.76042 12.1377 5.28125 12.7471C5.80208 13.3564 6.44271 13.734 7.20312 13.8799C6.90104 13.9632 6.63542 14.0049 6.40625 14.0049C6.27083 14.0049 6.06771 13.984 5.79688 13.9424C6.01562 14.5986 6.40365 15.1403 6.96094 15.5674C7.51823 15.9945 8.15104 16.2132 8.85938 16.2236C7.65104 17.1611 6.29167 17.6299 4.78125 17.6299C4.51042 17.6299 4.25 17.6143 4 17.583C5.54167 18.5622 7.21875 19.0518 9.03125 19.0518C10.1979 19.0518 11.2917 18.8669 12.3125 18.4971C13.3333 18.1273 14.2083 17.6325 14.9375 17.0127C15.6667 16.3929 16.2943 15.6794 16.8203 14.8721C17.3464 14.0648 17.737 13.221 17.9922 12.3408C18.2474 11.4606 18.375 10.583 18.375 9.70801C18.375 9.52051 18.3698 9.37988 18.3594 9.28613C19.0156 8.81738 19.5625 8.24967 20 7.58301ZM24 4.55176V19.5518C24 20.7913 23.5599 21.8512 22.6797 22.7314C21.7995 23.6117 20.7396 24.0518 19.5 24.0518H4.5C3.26042 24.0518 2.20052 23.6117 1.32031 22.7314C0.440104 21.8512 0 20.7913 0 19.5518V4.55176C0 3.31217 0.440104 2.25228 1.32031 1.37207C2.20052 0.491862 3.26042 0.0517578 4.5 0.0517578H19.5C20.7396 0.0517578 21.7995 0.491862 22.6797 1.37207C23.5599 2.25228 24 3.31217 24 4.55176Z" fill="#139595"/>
</svg>
