<svg width="19" height="20" viewBox="0 0 19 20" fill="none" xmlns="http://www.w3.org/2000/svg">
<path d="M18.651 14.9349L14.3155 10.993C14.1105 10.8067 13.8412 10.7074 13.5644 10.716C13.2876 10.7245 13.0249 10.8403 12.8319 11.0389L10.2797 13.6636C9.66532 13.5463 8.43027 13.1613 7.15895 11.8932C5.88762 10.6208 5.5026 9.38255 5.38848 8.77249L8.01111 6.2192C8.20993 6.0263 8.32589 5.7636 8.33445 5.48671C8.34301 5.20983 8.2435 4.94047 8.05698 4.73565L4.1161 0.401253C3.9295 0.195792 3.67015 0.0711649 3.39314 0.0538395C3.11613 0.0365141 2.84328 0.127856 2.63253 0.308465L0.318131 2.29329C0.133737 2.47835 0.0236789 2.72465 0.00883308 2.98547C-0.00716508 3.2521 -0.312197 9.56813 4.58537 14.4678C8.85795 18.7393 14.2099 19.0518 15.6838 19.0518C15.8993 19.0518 16.0315 19.0454 16.0667 19.0432C16.3275 19.0286 16.5737 18.9181 16.7578 18.7329L18.7416 16.4174C18.9229 16.2073 19.015 15.9347 18.998 15.6577C18.9811 15.3807 18.8565 15.1213 18.651 14.9349Z" fill="#139595"/>
</svg>
