<svg width="20" height="20" viewBox="0 0 20 20" fill="none" xmlns="http://www.w3.org/2000/svg">
<path d="M10.0002 0.885254C4.94016 0.885254 0.833496 4.99192 0.833496 10.0519C0.833496 15.1119 4.94016 19.2186 10.0002 19.2186C15.0602 19.2186 19.1668 15.1119 19.1668 10.0519C19.1668 4.99192 15.0602 0.885254 10.0002 0.885254ZM10.0002 3.63525C11.5218 3.63525 12.7502 4.86359 12.7502 6.38525C12.7502 7.90692 11.5218 9.13525 10.0002 9.13525C8.4785 9.13525 7.25016 7.90692 7.25016 6.38525C7.25016 4.86359 8.4785 3.63525 10.0002 3.63525ZM10.0002 16.6519C8.91103 16.6519 7.83883 16.3824 6.87917 15.8674C5.9195 15.3524 5.10221 14.6079 4.50016 13.7003C4.52766 11.8761 8.16683 10.8769 10.0002 10.8769C11.8243 10.8769 15.4727 11.8761 15.5002 13.7003C14.8981 14.6079 14.0808 15.3524 13.1212 15.8674C12.1615 16.3824 11.0893 16.6519 10.0002 16.6519Z" fill="#B6BCC4"/>
</svg>
