<svg width="30" height="22" viewBox="0 0 30 22" fill="none" xmlns="http://www.w3.org/2000/svg">
<path d="M29.7018 5.05152C29.7018 5.05152 29.4093 2.9834 28.5074 2.0759C27.3655 0.881524 26.0868 0.874024 25.5018 0.804649C21.3074 0.499024 15.0074 0.499023 15.0074 0.499023H14.9962C14.9962 0.499023 8.69803 0.499024 4.50178 0.804649C3.9149 0.875899 2.63803 0.881524 1.49615 2.0759C0.594277 2.9834 0.307402 5.05152 0.307402 5.05152C0.307402 5.05152 0.00927734 7.47777 0.00927734 9.90965V12.184C0.00927734 14.6103 0.307402 17.0421 0.307402 17.0421C0.307402 17.0421 0.599902 19.1103 1.49615 20.0196C2.63803 21.214 4.13803 21.1746 4.8074 21.3021C7.20928 21.5309 15.0093 21.6003 15.0093 21.6003C15.0093 21.6003 21.3149 21.589 25.5093 21.289C26.0962 21.2196 27.373 21.2121 28.5149 20.0178C29.4168 19.1103 29.7093 17.0403 29.7093 17.0403C29.7093 17.0403 30.0074 14.614 30.0074 12.1821V9.90777C30.0018 7.48152 29.7037 5.04965 29.7037 5.04965L29.7018 5.05152ZM11.9005 14.9421V6.51027L20.0043 10.7403L11.9005 14.9421Z" fill="#139595"/>
</svg>
