<svg width="20" height="15" viewBox="0 0 20 15" fill="none" xmlns="http://www.w3.org/2000/svg">
<path d="M2.21046 0.0517578H17.7895C19.2593 0.0517578 20 0.740091 20 2.14009V11.9634C20 13.3518 19.2593 14.0518 17.7895 14.0518H2.21046C0.740741 14.0518 0 13.3518 0 11.9634V2.14009C0 0.740091 0.740741 0.0517578 2.21046 0.0517578ZM9.99412 10.0851L17.9189 3.63342C18.2011 3.40009 18.4245 2.86342 18.0717 2.38509C17.7307 1.90676 17.1076 1.89509 16.6961 2.18676L9.99412 6.69009L3.30394 2.18676C2.89242 1.89509 2.26925 1.90676 1.92828 2.38509C1.57554 2.86342 1.79894 3.40009 2.08113 3.63342L9.99412 10.0851Z" fill="#139595"/>
</svg>
