<svg width="20" height="21" viewBox="0 0 20 21" fill="none" xmlns="http://www.w3.org/2000/svg">
<path d="M5.99979 16.0518C4.89983 16.0518 4.00986 16.9518 4.00986 18.0518C4.00986 19.1518 4.89983 20.0518 5.99979 20.0518C7.09976 20.0518 7.99973 19.1518 7.99973 18.0518C7.99973 16.9518 7.09976 16.0518 5.99979 16.0518ZM0 0.0517578V2.05176H1.99993L5.59981 9.64176L4.24985 12.0918C4.08986 12.3718 3.99986 12.7018 3.99986 13.0518C3.99986 14.1518 4.89983 15.0518 5.99979 15.0518H17.9994V13.0518H6.41978C6.27978 13.0518 6.16979 12.9418 6.16979 12.8018L6.19979 12.6818L7.09976 11.0518H14.5495C15.2995 11.0518 15.9595 10.6418 16.2994 10.0218L19.8793 3.53176C19.9618 3.37914 20.0033 3.20774 19.9998 3.03429C19.9963 2.86083 19.9478 2.69127 19.8591 2.54215C19.7705 2.39303 19.6446 2.26946 19.4939 2.1835C19.3432 2.09755 19.1728 2.05216 18.9993 2.05176H4.20986L3.26989 0.0517578H0ZM15.9995 16.0518C14.8995 16.0518 14.0095 16.9518 14.0095 18.0518C14.0095 19.1518 14.8995 20.0518 15.9995 20.0518C17.0994 20.0518 17.9994 19.1518 17.9994 18.0518C17.9994 16.9518 17.0994 16.0518 15.9995 16.0518Z" fill="#B6BCC4"/>
</svg>
